<?xml version="1.0" standalone="no"?>
<!DOCTYPE svg PUBLIC "-//W3C//DTD SVG 20010904//EN"
 "http://www.w3.org/TR/2001/REC-SVG-20010904/DTD/svg10.dtd">
<svg version="1.0" xmlns="http://www.w3.org/2000/svg"
 width="600.000000pt" height="600.000000pt" viewBox="0 0 600.000000 600.000000"
 preserveAspectRatio="xMidYMid meet">
<g transform="translate(0.000000,600.000000) scale(0.100000,-0.100000)"
fill="#000000" stroke="none">
<path d="M0 3000 l0 -3000 3000 0 3000 0 0 3000 0 3000 -3000 0 -3000 0 0
-3000z m1641 2554 c58 -29 77 -125 37 -184 -47 -68 -140 -70 -205 -5 -77 77
-18 204 95 205 24 0 57 -7 73 -16z m2211 -124 c33 -35 38 -47 38 -86 0 -37 -6
-51 -29 -75 -26 -25 -37 -29 -86 -29 -53 0 -60 3 -96 39 -42 42 -49 75 -26
121 19 38 74 70 120 70 34 0 46 -6 79 -40z m-992 -281 c0 -6 -20 -43 -44 -82
-113 -187 -109 -209 30 -146 52 24 77 30 107 26 22 -3 43 -9 48 -14 4 -4 -1
-33 -11 -63 -24 -68 -25 -98 -3 -122 21 -23 65 -23 85 0 9 9 23 41 33 70 l17
53 36 -23 c116 -70 204 -145 305 -258 135 -151 171 -321 116 -560 -42 -183
-171 -377 -335 -506 -85 -66 -245 -141 -356 -165 -79 -18 -115 -20 -243 -16
-193 7 -258 26 -426 124 -83 48 -206 153 -263 224 -67 82 -90 108 -93 105 -1
-1 4 -35 13 -75 8 -41 12 -76 9 -80 -10 -9 -40 36 -89 129 -170 326 -109 675
161 930 95 91 238 190 272 190 9 0 15 -17 40 -108 14 -49 44 -68 86 -52 37 14
41 52 15 131 -12 38 -20 76 -16 84 8 23 52 18 102 -11 54 -32 62 -27 99 54 41
89 86 128 180 158 50 16 125 18 125 3z m-715 -157 c-6 -5 -50 -35 -100 -67
-94 -61 -113 -76 -200 -161 -31 -31 -66 -55 -84 -59 -18 -4 -44 -13 -59 -21
-15 -8 -30 -14 -35 -14 -26 0 -309 -160 -337 -190 -3 -3 -25 -18 -50 -34 -25
-16 -57 -39 -71 -52 -25 -24 -27 -24 -85 -10 -32 8 -81 17 -109 21 l-50 7 65
59 c36 32 71 59 78 59 6 0 12 4 12 9 0 8 160 120 185 130 5 2 21 12 35 21 56
39 321 169 376 185 32 10 73 23 89 30 75 30 170 58 265 79 82 18 86 18 75 8z
m1195 -64 c65 -20 250 -98 358 -151 133 -66 322 -188 428 -277 102 -86 260
-237 254 -244 -3 -2 -51 -10 -107 -16 l-103 -12 -54 52 c-31 29 -53 57 -49 63
3 6 1 7 -5 3 -7 -4 -37 13 -69 39 -32 25 -65 52 -73 58 -33 27 -212 138 -262
163 -33 17 -84 59 -138 114 -47 48 -115 110 -151 136 -36 27 -79 59 -95 71
l-29 23 30 -6 c17 -3 46 -11 65 -16z m-2285 -673 c94 -19 257 -103 375 -191
146 -110 184 -150 205 -214 48 -147 140 -289 268 -412 71 -68 79 -79 67 -94
-11 -12 -26 -15 -65 -12 -42 4 -71 18 -185 90 -183 116 -516 346 -653 451
-200 154 -248 187 -267 187 -44 0 -15 -39 111 -150 73 -63 137 -120 143 -126
25 -23 230 -176 374 -279 85 -61 168 -120 185 -133 18 -12 45 -31 61 -41 l28
-19 -63 -6 c-35 -3 -140 -8 -234 -11 -93 -3 -216 -10 -271 -16 l-102 -10 -73
36 c-143 71 -272 188 -337 306 -57 104 -75 180 -70 299 3 84 8 105 36 163 33
66 87 123 147 154 81 43 199 53 320 28z m3480 -195 c176 -84 256 -266 211
-476 -35 -164 -189 -336 -381 -426 l-68 -31 -116 12 c-64 7 -168 16 -231 21
-114 9 -257 35 -273 50 -5 4 7 17 25 28 18 11 51 33 73 49 22 15 92 64 155
107 301 209 630 477 630 515 0 6 -11 11 -25 11 -24 0 -101 -50 -230 -150 -174
-135 -790 -540 -821 -540 -6 0 -32 26 -57 58 l-45 58 68 62 c101 92 192 216
248 342 25 57 39 73 108 125 133 102 207 144 322 185 92 32 145 39 249 35 78
-3 102 -8 158 -35z m-4043 -509 c21 -41 38 -80 38 -87 0 -6 -14 -56 -30 -110
-121 -391 -103 -885 46 -1276 63 -167 206 -419 300 -529 76 -90 75 -89 59 -89
-19 0 -33 -34 -31 -77 1 -17 -2 -29 -6 -27 -5 3 -8 16 -8 30 0 13 -5 24 -11
24 -5 0 -8 -3 -6 -7 3 -5 1 -18 -4 -30 -13 -36 -57 -23 -107 33 -24 27 -48 57
-53 69 -5 11 -40 65 -79 120 -72 103 -115 188 -105 205 3 6 0 10 -7 10 -16 0
-61 91 -112 225 -191 505 -178 1096 37 1600 l22 50 10 -30 c5 -17 26 -63 47
-104z m1667 -297 c267 -147 597 -176 897 -78 89 29 83 31 180 -62 75 -72 93
-106 96 -179 3 -71 -2 -75 -135 -116 -131 -40 -219 -56 -362 -64 -285 -16
-546 35 -785 156 -52 26 -110 60 -128 76 -31 26 -33 30 -23 57 23 58 166 246
189 246 3 0 35 -16 71 -36z m2756 -49 c39 -18 101 -59 138 -90 92 -76 186
-205 149 -205 -4 0 -32 25 -62 55 -30 31 -86 77 -125 103 -67 46 -199 112
-223 112 -13 0 -16 28 -6 55 9 21 38 15 129 -30z m-3055 -1 c0 -3 -13 -24 -29
-47 -15 -23 -36 -57 -45 -74 -13 -26 -27 -36 -71 -48 -144 -42 -390 -190 -519
-313 l-53 -50 -63 30 -62 30 48 50 c174 177 444 335 690 402 100 27 104 28
104 20z m-470 -51 c0 -5 -24 -21 -53 -37 -141 -77 -286 -192 -391 -309 -44
-49 -77 -78 -96 -82 -16 -3 -53 -24 -83 -46 -31 -21 -58 -39 -61 -39 -3 0 -6
47 -6 105 0 124 20 190 80 257 83 95 223 132 588 157 12 0 22 -2 22 -6z m2273
-47 c98 -24 180 -48 222 -66 11 -4 47 -18 80 -30 84 -32 267 -127 306 -159
l33 -28 -26 -34 c-14 -19 -28 -42 -31 -52 -4 -11 -12 -15 -19 -11 -7 4 -38 24
-68 43 -116 73 -357 171 -498 202 -49 10 -51 12 -86 79 -20 37 -36 71 -36 74
0 10 14 7 123 -18z m1158 -50 c46 -19 95 -40 109 -48 119 -65 245 -178 237
-213 -7 -30 -145 -427 -151 -433 -3 -2 -29 13 -58 36 -96 74 -333 202 -374
202 -29 0 -26 33 11 133 68 182 136 357 139 357 2 0 41 -15 87 -34z m-2872
-115 c22 -17 23 -19 7 -48 -25 -49 -65 -197 -72 -267 -9 -88 -13 -92 -62 -67
-22 11 -43 25 -46 29 -3 5 1 53 9 108 13 90 43 197 75 266 13 27 14 27 40 12
14 -9 37 -24 49 -33z m2429 8 c67 -23 76 -33 37 -43 -19 -5 -38 2 -76 29 -59
40 -49 44 39 14z m-2678 -78 c-6 -23 -15 -41 -19 -41 -28 0 -309 -148 -405
-214 -21 -14 -44 -26 -50 -26 -22 0 102 114 189 172 82 56 284 162 293 154 2
-2 -2 -22 -8 -45z m4069 13 c86 -29 97 -38 82 -62 -7 -12 -22 -10 -84 7 -107
29 -248 44 -345 37 -46 -4 -90 -10 -98 -13 -16 -6 -20 22 -4 32 33 20 145 34
250 31 95 -2 129 -8 199 -32z m-1843 -119 c71 -31 170 -84 220 -117 81 -54 95
-68 110 -107 10 -25 39 -67 65 -93 51 -51 115 -76 201 -80 31 -1 45 -5 41 -12
-41 -69 -146 -151 -248 -194 -65 -27 -199 -45 -278 -37 -88 9 -191 38 -282 79
l-77 36 6 37 c3 21 9 102 12 181 5 99 10 142 18 138 177 -75 316 -121 494
-163 57 -14 53 1 -10 33 -29 15 -69 37 -90 50 -20 13 -122 69 -225 125 -103
55 -193 106 -200 112 -6 7 -15 33 -18 59 l-7 47 70 -19 c39 -11 128 -45 198
-75z m604 60 c0 -3 -12 -33 -26 -68 -29 -71 -58 -157 -68 -204 -4 -18 -12 -36
-18 -39 -16 -10 -62 46 -83 99 -41 107 34 217 148 217 26 0 47 -2 47 -5z
m1022 -46 c47 -6 124 -20 170 -32 78 -21 83 -24 81 -49 -1 -14 -17 -64 -36
-110 -20 -45 -63 -154 -98 -240 -34 -87 -63 -158 -65 -158 -3 0 -12 4 -22 10
-57 33 -343 100 -427 100 -17 0 -34 3 -38 6 -3 3 10 49 30 102 19 54 54 153
78 220 23 68 47 128 53 134 10 10 92 24 157 27 17 0 69 -4 117 -10z m-3896
-244 l-1 -185 -85 -44 c-106 -54 -224 -92 -312 -101 -85 -8 -96 -2 -63 36 36
44 58 128 53 211 -3 78 -13 66 102 124 203 102 286 143 296 143 7 1 10 -61 10
-184z m-638 99 c45 -19 87 -57 102 -95 33 -79 -135 -208 -272 -209 -14 0 -28
-5 -30 -12 -6 -18 -29 1 -44 38 -18 44 -18 126 1 172 21 49 52 81 100 103 49
23 94 24 143 3z m838 -121 c88 -59 200 -111 350 -162 299 -102 645 -113 942
-30 93 25 279 97 287 110 4 5 12 9 20 9 14 0 -14 -105 -52 -191 -68 -153 -262
-249 -641 -318 -122 -23 -370 -31 -503 -17 -109 12 -140 19 -256 65 l-132 52
-30 77 c-16 42 -37 113 -46 157 -20 95 -32 295 -18 295 5 0 40 -21 79 -47z
m2734 2 c105 -37 353 -180 387 -223 9 -10 9 -20 2 -34 -10 -18 -13 -16 -57 20
-65 54 -180 121 -292 171 -105 47 -115 54 -106 70 9 14 15 14 66 -4z m171
-228 c9 -7 14 -18 12 -25 -3 -8 1 -10 13 -5 13 5 15 3 9 -7 -6 -9 -4 -11 4 -5
8 4 24 -3 41 -20 l28 -26 -20 -67 c-11 -37 -24 -71 -28 -77 -4 -5 -18 -39 -30
-75 -28 -79 -71 -174 -82 -178 -4 -2 -8 -10 -8 -18 0 -9 -5 -12 -12 -8 -7 4
-8 3 -4 -4 9 -15 -73 -166 -104 -192 -3 -3 -26 -36 -50 -75 -46 -74 -109 -147
-120 -140 -4 3 -15 -4 -24 -14 -10 -11 -25 -17 -35 -14 -28 7 -36 -15 -14 -39
17 -20 17 -21 0 -15 -12 4 -16 3 -11 -4 5 -9 -36 -58 -43 -51 -2 1 -11 2 -20
1 -15 0 -15 -2 2 -9 11 -5 18 -9 15 -10 -3 -1 -12 -3 -20 -5 -8 -2 -24 -6 -35
-10 -13 -5 -16 -4 -7 2 10 7 7 15 -12 36 -25 27 -24 37 6 37 12 0 18 7 18 21
0 14 -5 19 -14 16 -20 -8 -28 19 -11 33 8 7 13 15 11 19 -7 12 11 46 24 46 8
0 17 12 21 26 4 15 36 62 71 105 103 126 217 314 266 439 11 28 35 82 52 120
18 39 34 87 35 107 4 40 33 98 50 98 5 0 17 -6 26 -13z m497 -66 c88 -17 258
-69 305 -93 16 -8 16 -11 1 -39 -8 -17 -18 -29 -22 -27 -4 2 -41 20 -83 40
-97 47 -203 78 -289 85 -78 7 -96 14 -87 37 8 21 53 21 175 -3z m-2501 -759
c-15 -47 -39 -108 -46 -115 -6 -6 -101 111 -101 124 0 2 34 5 76 6 68 2 76 1
71 -15z m-1847 -22 c0 -5 -2 -10 -4 -10 -3 0 -8 5 -11 10 -3 6 -1 10 4 10 6 0
11 -4 11 -10z m89 -63 c8 -10 7 -14 -2 -14 -8 0 -14 6 -14 14 0 7 1 13 2 13 2
0 8 -6 14 -13z m3405 -32 c-4 -8 -11 -15 -16 -15 -6 0 -5 6 2 15 7 8 14 15 16
15 2 0 1 -7 -2 -15z m-3359 -15 c3 -5 4 -10 1 -10 -3 0 -8 5 -11 10 -3 6 -4
10 -1 10 3 0 8 -4 11 -10z m-170 -20 c3 -5 1 -10 -4 -10 -6 0 -11 5 -11 10 0
6 2 10 4 10 3 0 8 -4 11 -10z m50 -18 c1 -13 -6 -27 -15 -32 -19 -10 -49 3
-31 14 6 4 11 16 11 27 0 29 33 20 35 -9z m67 21 c-21 -4 -22 -8 -16 -52 5
-38 3 -49 -12 -61 -17 -13 -18 -13 -7 0 10 13 9 16 -7 16 -10 0 -16 -4 -14 -8
3 -4 3 -8 0 -8 -3 0 -10 10 -17 21 -6 12 -7 19 -1 15 13 -8 19 11 17 52 -2 31
-1 32 39 31 23 -1 31 -4 18 -6z m163 -83 c3 -5 4 -10 1 -10 -3 0 -8 5 -11 10
-3 6 -4 10 -1 10 3 0 8 -4 11 -10z m50 -40 c3 -5 4 -10 1 -10 -3 0 -8 5 -11
10 -3 6 -4 10 -1 10 3 0 8 -4 11 -10z m2958 -21 c-3 -10 -14 -19 -25 -22 -14
-4 -18 -2 -14 10 3 8 6 18 6 22 0 4 8 7 19 7 12 0 17 -6 14 -17z m-58 -39 c-3
-5 -12 -10 -18 -10 -7 0 -6 4 3 10 19 12 23 12 15 0z m22 -25 c-7 -14 -16 -23
-22 -21 -5 2 -17 -2 -25 -9 -9 -8 -22 -10 -35 -5 -18 8 -17 9 6 9 15 1 30 8
33 17 3 8 10 13 15 10 5 -3 11 1 15 9 3 8 10 15 15 15 5 0 4 -11 -2 -25z m-66
-8 c-10 -9 -11 -8 -5 6 3 10 9 15 12 12 3 -3 0 -11 -7 -18z m-2564 -289 c-3
-8 -6 -5 -6 6 -1 11 2 17 5 13 3 -3 4 -12 1 -19z"/>
<path d="M1608 5493 c7 -3 16 -2 19 1 4 3 -2 6 -13 5 -11 0 -14 -3 -6 -6z"/>
<path d="M1516 5475 c-3 -8 -1 -15 4 -15 6 0 10 7 10 15 0 8 -2 15 -4 15 -2 0
-6 -7 -10 -15z"/>
<path d="M1545 5473 c3 -3 -2 -14 -10 -23 -22 -24 -9 -50 25 -50 34 0 61 26
36 36 -9 3 -23 1 -31 -6 -9 -7 -19 -10 -22 -6 -4 4 -3 10 3 14 11 8 12 28 2
36 -5 3 -6 3 -3 -1z"/>
<path d="M1663 5443 c4 -3 10 -3 14 0 3 4 0 7 -7 7 -7 0 -10 -3 -7 -7z"/>
<path d="M1584 5378 c-4 -7 -3 -8 4 -4 12 7 16 16 8 16 -3 0 -8 -5 -12 -12z"/>
<path d="M1610 5381 c0 -5 7 -11 15 -15 8 -3 15 -1 15 3 0 5 -7 11 -15 15 -8
3 -15 1 -15 -3z"/>
<path d="M1585 5350 c-3 -5 -1 -10 4 -10 6 0 11 5 11 10 0 6 -2 10 -4 10 -3 0
-8 -4 -11 -10z"/>
<path d="M3775 5360 c-3 -5 -4 -10 -1 -10 2 0 11 -3 20 -6 11 -4 16 -1 16 10
0 18 -25 22 -35 6z"/>
<path d="M3750 5321 c0 -16 28 -20 34 -5 4 9 -1 14 -14 14 -11 0 -20 -4 -20
-9z"/>
<path d="M2127 4580 c-204 -52 -317 -264 -251 -473 17 -53 88 -140 144 -176
80 -52 132 -65 239 -59 72 4 98 11 142 34 198 107 253 354 119 531 -46 61
-122 119 -175 132 -63 16 -175 21 -218 11z m85 -103 c49 -31 50 -140 1 -189
-47 -46 -131 -50 -173 -8 -14 14 -20 34 -20 69 0 109 107 181 192 128z m-63
-343 c12 -15 21 -37 21 -50 0 -27 -44 -64 -77 -64 -34 0 -73 42 -73 79 0 60
90 85 129 35z"/>
<path d="M3080 4561 c-131 -28 -245 -135 -280 -263 -17 -65 -9 -191 17 -248
45 -99 156 -186 270 -210 148 -32 332 66 397 210 88 195 -2 415 -202 493 -52
21 -150 30 -202 18z m63 -129 c57 -57 41 -168 -28 -201 -16 -8 -50 -14 -74
-14 -37 0 -49 5 -74 33 -25 28 -29 39 -25 75 7 58 27 95 68 123 45 30 92 24
133 -16z m-59 -318 c37 -37 32 -103 -9 -122 -37 -17 -59 -15 -89 9 -31 24 -36
81 -9 111 20 23 85 24 107 2z"/>
<path d="M2397 3782 c-30 -33 -21 -76 26 -133 53 -66 78 -84 149 -109 130 -45
288 -8 387 92 76 75 86 135 25 158 -33 13 -46 6 -94 -51 -58 -69 -108 -93
-195 -93 -59 -1 -77 3 -118 27 -30 18 -54 42 -67 67 -31 60 -80 78 -113 42z"/>
<path d="M770 1380 c0 -7 3 -10 7 -7 3 4 3 10 0 14 -4 3 -7 0 -7 -7z"/>
<path d="M4227 1343 c-14 -13 -6 -24 15 -21 27 4 36 28 11 28 -11 0 -23 -3
-26 -7z"/>
</g>
</svg>
